<svg xmlns="http://www.w3.org/2000/svg" viewBox="0 0 140.4 143"><defs><style>.cls-1{isolation:isolate;}.cls-2{mix-blend-mode:hard-light;}.cls-3{fill:#86819c;}.cls-4{fill:#756f8e;}</style></defs><g class="cls-1"><g id="Layer_2" data-name="Layer 2"><g id="Layer_1-2" data-name="Layer 1"><g class="cls-2"><path class="cls-3" d="M139.3,69.8c.3,2.1.8-.6,1.1-3L139,64.7C139.2,66.4,139.2,68.1,139.3,69.8Z"/><path class="cls-3" d="M138.7,58.4a52.9,52.9,0,0,0-2.5-5.4l1.6,3.9c0,2.3-.3,2.2-.8,1.4s-.4-1.1-.7-1.7a13.8,13.8,0,0,0-.6-1.6,27.2,27.2,0,0,0,1.1,3.4c.3.6.5.7.7.6S138.2,57.8,138.7,58.4Z"/><path class="cls-3" d="M134.9,47.7c-1.2-3.5-1.6-2.2-1.3-.7S135.1,49.2,134.9,47.7Z"/><path class="cls-3" d="M12.4,108.6c-.4-1.1-1-2.2-.7-2.2S10.5,105.4,12.4,108.6Z"/><path class="cls-3" d="M11.7,106.4l.5.6-.4-.6Z"/><path class="cls-3" d="M20.4,38.4a16.3,16.3,0,0,1,1.1-2.3l1.2-1.8L24,32.6l1.4-2,2.1-.8c2.3-2.9.4-1.8,2.1-4.1l1.2-.9,1.3-1L35,21.4l2.7-2.1,1.8-1.2c1.2-.2-.8,1.3-1.1,1.9l1.9-1.7L41.7,17a7.5,7.5,0,0,1,1.6-1.3,12.5,12.5,0,0,1,2.9-1.6l.2.2A43.1,43.1,0,0,1,56.1,10,52.3,52.3,0,0,1,67.5,7.8,68.6,68.6,0,0,1,91,9.8c-1-.4-.7-.5-1-.8a69.3,69.3,0,0,1,22.5,11.4,72.9,72.9,0,0,1,9.2,8.1c2.8,2.8,5.2,5.6,7.5,8.2l-4.3-6.6a54.6,54.6,0,0,0-5.8-7.1c-4.3-4.6-9.4-8.4-13.9-9.9a14.6,14.6,0,0,0-2.4-1.7l-2.7-1.3L97.7,9a3.4,3.4,0,0,1-1.4-1.1A40.8,40.8,0,0,0,80.7,4.4a123.1,123.1,0,0,0-15.5.5c-1.8.1-1-.5-1.6-1A70.3,70.3,0,0,1,73.8,3q-3.1-.3-6.3-.3l2.6-.4h3.2c2.1-.1,4,0,4.4-.4A121.2,121.2,0,0,0,61.5,2.9c-5.7,1-11.1,2.7-14.4,4.8A103.5,103.5,0,0,1,59.2,4.2c1.9,0,4.9-.1,4.7.4-3,.7-5.8,1.5-8.5,2.3s-5.3,1.8-7.9,2.9l-3.8,1.7a34.8,34.8,0,0,0-3.8,2,55.7,55.7,0,0,0-7.3,5c-2.4,1.9-5.5,4.8-6.2,4.8,1.3-1.6-.1-.8,1-2.1-1.5,1.7-1.2,2-1.2,2.6s-.3,1.1-2.5,3.3c-.2-.5-.5-1.1-.7-1.7-.2,1.5-1.5,2.9-3,4.6a17.5,17.5,0,0,0-3.9,5.7c-.7.6-.8.1-.4-.8A23.8,23.8,0,0,1,17.9,31a11.9,11.9,0,0,0-2.1,3.6,24.1,24.1,0,0,1-1.4,3.2c.1-1.1.1-2.3.3-3.4-.6,3.7-3.3,5.3-4.6,6.9.3.4,2-.8.2,3.1-.9,1.7-.9.6-1.2,1a2.8,2.8,0,0,1,.1,1.5,18.9,18.9,0,0,1-.7,3.2c-.6.4-.1-2-.5-2.4A31.8,31.8,0,0,1,6.1,53c-.5,3.8.8-.1.7,2.3s-1.1,2.9-1.6,2.5-.9-1.3-1.6-.3c0-.6.1-1.2.1-1.8s.1-1.2.2-1.8l.6-3.7c.3-1.2.6-2.2.8-3.2a20.8,20.8,0,0,1,.6-2.4C5.4,46,5,47.5,4.6,48.9a33.4,33.4,0,0,0-1,4.3c-.2-.3-.8,1.1-1.3,2s-.4.9-.5.8-.2-.6,0-1.8A48.2,48.2,0,0,0,0,68.6a67.8,67.8,0,0,0,1.8,14c0-1.2-.2-2.8.3-2.6,1,4.3.3,4,.1,4.9,1.1,3.2,2,2.6,3.2,4.3A41.1,41.1,0,0,0,7.1,96L8,98.6c.2,1,.5,2.1.9,3.5l.8-.8a10,10,0,0,0,2,3.9,12.9,12.9,0,0,1,2.6,3.8c0,.3-1.2-1-2.1-2l1.3,1.9.6,1.4a8.4,8.4,0,0,0,2,3,21.1,21.1,0,0,1-2.7-1.8c.9,1.3,2.2,2.7,2.9,3.8s1.2,1.6.4,1.3c2.1,1.8,4.8,4.3,7.8,6.8a52,52,0,0,0,9.2,6.3l-.8.5a24.1,24.1,0,0,1,3.2,1.4l4,2.1a27.5,27.5,0,0,0,4.1,1.7,12.4,12.4,0,0,0,3.2.7l.3.5,3.5.5c1.1.1,2.2.3,3.4.3,2.9.8,1.6,1.9,1.9,1.6a160.4,160.4,0,0,0,16.4,1.7c1.1-1.1,8.1-1.7,13.5-3.2a63.5,63.5,0,0,0,19.1-6.9,66.3,66.3,0,0,0,16-12.8,59.9,59.9,0,0,0,6.3-8l2.6-4.3a45.1,45.1,0,0,0,2.2-4.4A62.6,62.6,0,0,0,136,92a74.1,74.1,0,0,0,2-9.1c.7-3.6,0-8.7-.6-13.1-.1,1.4-.2,2.4-.2,3.3v2.4a19.3,19.3,0,0,1-.1,2.3,23.1,23.1,0,0,1-.4,3.2c-1,4-2.6,5.1-4.2,8.1l1.4-1.4c-.8,5.4-1.6,3.3-2.2,7.6l-1.4-.7a6.2,6.2,0,0,1-1,3.1,17,17,0,0,1-2.1,2.7l.3,1.7c-2.2,2.6-3.7,4.2-5,4.4l1,.3a10.2,10.2,0,0,0-1.7,1.8l-1.2,1.5-1.4,1.4c-1.7,1.8-3.2,2.9-2.5,1a7.7,7.7,0,0,1-2.2,3.1l-.9-.5c-2,2.2-4.5,4.4-5.5,4.4a4.7,4.7,0,0,0,1.4-2.4l-1.6,1.2-1.3,1-1.5,1.5a2,2,0,0,0-.7,1.7,2,2,0,0,1-.4,1.7,14.4,14.4,0,0,1-4.3,3l-.2-.7c-.7.7-1.5,1.2-2.3,1.9l-3,.3c-1.5,1.8-5.4,3.1-9.7,3.8s-8.9.8-12.3,1.3S66,132.7,61,132l.2,1a111,111,0,0,1-10.9-4.3c-4.3-2.2-8.1-5-9-7-3.6-1.2.2.4-.3,1l-1.2-.5-1-.5-1.6-1a9.8,9.8,0,0,1-2.1-1.8c-1-1.2-1.5-2.2-2.7-3.7-3.7-2.5,2.3,2.5,0,1.5L29.6,114l-2.1-1.5a14.6,14.6,0,0,1-2.2-1.8l-1.4-1.5-1.6-2.3c-.1-1,1.7,1.5,2.5,1.9a34.8,34.8,0,0,1-7.2-9.4,75.6,75.6,0,0,1-5.3-13A70.1,70.1,0,0,1,11,68.7a51.6,51.6,0,0,1,1.3-9.6,46.8,46.8,0,0,1,2.9-8.7l-.3-.3a34.1,34.1,0,0,0,1.7-3.3c.5-1.1,1-2.3,1.6-3.4a35.6,35.6,0,0,1,4.1-7Z"/><path class="cls-3" d="M80.8,1l-1-1H73.6a13.5,13.5,0,0,0,3.3.4h1.7Z"/><path class="cls-3" d="M79.2,3.4h3.1l-2.5-.3-2.5-.2Z"/><path class="cls-3" d="M13.9,33.5l.5-.6a76,76,0,0,1,6.5-9.5A64.8,64.8,0,0,0,13.9,33.5Z"/><path class="cls-3" d="M11.5,108.6a7.1,7.1,0,0,1-1.6-1.8c-.5-.7-.9-1.4-1.4-2l1.6,2.3,1.7,2.3Z"/><path class="cls-3" d="M54.1,142.8c2.5-1,4.3.9,1.7-1S55.2,142.5,54.1,142.8Z"/><path class="cls-3" d="M67.4,142.5a28.7,28.7,0,0,0-4.2,0C65.7,143.5,65.9,142.7,67.4,142.5Z"/></g><path class="cls-4" d="M48.5,46.5l5.1-.7,6-.2h1.9l1.9.2,1.6.2,1.7.3,1.6-.3,1.1.2,1.5.6,1.3-.5a1.9,1.9,0,0,1,1.3.5,1.6,1.6,0,0,1,.7,1.2v1.2a4.9,4.9,0,0,1-.1,1.2,3.4,3.4,0,0,0,.1.9,4.6,4.6,0,0,1,.1,1,.6.6,0,0,1-.3.6l-.7.2L69.1,53l-4.2-.8-3.2.4-1.6.2c-.3.1-.5.2-.5.4l.7.5.9.6a2.2,2.2,0,0,1,.9.8,8.3,8.3,0,0,1,1.1,1.7l.3.8a1.5,1.5,0,0,1,.1.7,15.4,15.4,0,0,1-.2,1.9,16.7,16.7,0,0,1-.6,2c-.3,1-.6,1.8-.7,2.4l-.5,1.5a6.4,6.4,0,0,0-.2.9,5.7,5.7,0,0,1-.1,1.2,6.3,6.3,0,0,1-.4,1.4,8.4,8.4,0,0,0-.8,1.9,5.2,5.2,0,0,1-.2,1.1,11.3,11.3,0,0,1-.4,1.5,4.1,4.1,0,0,1-.6,1.1l-.7,1.5a3.6,3.6,0,0,1,.2,1.1c-.2.7-.3,1.4-.5,2.2l-.6,3.3c-.3,1.1-.5,2.1-.7,3.2l-.7,1a4.5,4.5,0,0,0,.2.8c0,.4.1.6.1.9a7.4,7.4,0,0,1-.2,1.2,3.5,3.5,0,0,0-.3,1.2v2.2a22,22,0,0,0-.1,2.3,6.1,6.1,0,0,1,.5,1.2l-.3.8a1.7,1.7,0,0,1-.6.6l-1.8.6-1,.6-.6.3a4.2,4.2,0,0,1-1.8-.3.6.6,0,0,1-.5-.6,20,20,0,0,1,.4-2.4c0-.1-.1-.2-.2-.4l-.4-.8c-.2-1.9-.5-3.9-.8-6s.2-3,.2-4.5a25.4,25.4,0,0,1,.1-2.6,31.2,31.2,0,0,1,.6-3.7c.2-1.4.4-2.7.5-3.7s.2-1.9.2-2.6a5.7,5.7,0,0,1,.1-1.2c.1-.4.2-1,.4-1.7s.2-1.1.3-1.5a6.9,6.9,0,0,0,.2-1.3c0-.2-.1-.4-.1-.6s-.1-.4-.1-.6a7.6,7.6,0,0,0,.8-1.5,2.7,2.7,0,0,0,.3-.8,4.7,4.7,0,0,0-.5-1,6.3,6.3,0,0,0,.7-1.9,31.1,31.1,0,0,0,.9-3.6V54.3l-.3-.7-.8-.2-1.5-.2-.7.4-1.5.2-1.6.3L35,56.2l-.7-.2a.9.9,0,0,1-.3-.7,2,2,0,0,1,.3-.8l.9-1.5c.1-.8.2-1.6.3-2.1a3.9,3.9,0,0,1,.4-1.4,3.5,3.5,0,0,1,1.4-1.3,6.3,6.3,0,0,1,2.2-.9,45.3,45.3,0,0,1,4.9-.8A28,28,0,0,1,48.5,46.5Z"/><path class="cls-4" d="M111.5,88.4l2.3,3.5a11.3,11.3,0,0,1-3.5.7c-1.8.2-4.1.4-7,.5a60.5,60.5,0,0,1-9.9,5.4,45.5,45.5,0,0,1-9.7,3.1l-2.6.5-2-.2-2.4-.7-2.1-1.1c-.5-.4-.7-.7-.7-1.1a3.1,3.1,0,0,1,1.6-2.2,23.1,23.1,0,0,1,4.8-2l12.5-3.9,1.3.2a.8.8,0,0,1,.4.7c0,.6-.7,1.2-2.2,1.7s-2.2.8-2.2,1l.7.3a10.9,10.9,0,0,0,3.3-1.4c1.6-1,2.5-1.6,2.4-1.9l-.3-.8.2-.2A17,17,0,0,0,98.5,89c.5-.5.7-.8.7-1.1a4,4,0,0,0-1.4-2.5,23.6,23.6,0,0,0-4.2-3.8,38.5,38.5,0,0,0-4.3-3.1A37.7,37.7,0,0,0,85.2,76l-1.4-.8-.9-.9-1-1.2a1.7,1.7,0,0,0-.6-.6,2.8,2.8,0,0,0-.8-.6l-1.1-.7a6.2,6.2,0,0,1-1.9-2.3,9.9,9.9,0,0,1-.6-3.7,6.6,6.6,0,0,1,.6-2.7,8.1,8.1,0,0,1,1.7-2.4l.3-.5a2.5,2.5,0,0,0,.4-.7,17.4,17.4,0,0,1,4.4-3.8,65.3,65.3,0,0,1,8.2-4.4l1.6-.6,2.1-.9,1.5-.7,2-.6,3.4-.9,4.7-1.4a13.8,13.8,0,0,1,2.8-.5,4.3,4.3,0,0,1,2.8.8,2.7,2.7,0,0,1,.9,2.2,8.5,8.5,0,0,1-.3,2.5,3.2,3.2,0,0,1-1,1.4c-4.4,2.3-8,4.1-10.7,5.3s-4.6,1.8-5.7,1.8a2.5,2.5,0,0,1-1.3-.3,1,1,0,0,1-.4-.9c0-.7.8-1.4,2.5-2.3s2.5-1.4,2.5-1.8l-.5-.2h-.7L98,54a37.6,37.6,0,0,0-7.5,4.8c-1.7,1.4-2.5,2.6-2.5,3.7a5,5,0,0,0,.7,2.5,12.2,12.2,0,0,0,1.8,2.6L93.2,70c1.1,1,2.6,2.1,4.3,3.5l5.7,4.3,2.2,1.7a17,17,0,0,1,1.9,1.9,7.7,7.7,0,0,1,1.1,1.9,8,8,0,0,1,.4,1.8c0,.7.1,1.5.1,2.5s.1.9.4,1l1.3.2h.5Z"/></g></g></g></svg>